<?xml version="1.0" encoding="UTF-8" standalone="no"?>
<svg
   xmlns:dc="http://purl.org/dc/elements/1.1/"
   xmlns:cc="http://creativecommons.org/ns#"
   xmlns:rdf="http://www.w3.org/1999/02/22-rdf-syntax-ns#"
   xmlns:svg="http://www.w3.org/2000/svg"
   xmlns="http://www.w3.org/2000/svg"
   xmlns:sodipodi="http://sodipodi.sourceforge.net/DTD/sodipodi-0.dtd"
   xmlns:inkscape="http://www.inkscape.org/namespaces/inkscape"
   width="210mm"
   height="297mm"
   viewBox="0 0 210 297"
   version="1.1"
   id="svg8"
   inkscape:version="1.0 (b51213c273, 2020-08-10)"
   sodipodi:docname="logo1.svg">
  <defs
     id="defs2" />
  <sodipodi:namedview
     id="base"
     pagecolor="#ffffff"
     bordercolor="#666666"
     borderopacity="1.0"
     inkscape:pageopacity="0.0"
     inkscape:pageshadow="2"
     inkscape:zoom="0.49497475"
     inkscape:cx="316.85128"
     inkscape:cy="549.23464"
     inkscape:document-units="mm"
     inkscape:current-layer="layer1"
     inkscape:document-rotation="0"
     showgrid="false"
     inkscape:window-width="1920"
     inkscape:window-height="1016"
     inkscape:window-x="0"
     inkscape:window-y="27"
     inkscape:window-maximized="1" />
  <metadata
     id="metadata5">
    <rdf:RDF>
      <cc:Work
         rdf:about="">
        <dc:format>image/svg+xml</dc:format>
        <dc:type
           rdf:resource="http://purl.org/dc/dcmitype/StillImage" />
        <dc:title></dc:title>
      </cc:Work>
    </rdf:RDF>
  </metadata>
  <g
     inkscape:label="Layer 1"
     inkscape:groupmode="layer"
     id="layer1">
    <text
       xml:space="preserve"
       style="font-style:normal;font-variant:normal;font-weight:normal;font-stretch:normal;font-size:99.3648px;font-family:'Nimbus Roman No9 L';-inkscape-font-specification:'Nimbus Roman No9 L, Normal';font-variant-ligatures:normal;font-variant-caps:normal;font-variant-numeric:normal;font-variant-east-asian:normal;fill:#000080;fill-opacity:1;stroke:none;stroke-width:2.48412"
       x="40.634769"
       y="155.60669"
       id="text835"
       transform="scale(1.0997717,0.90927963)"><tspan
         id="tspan833"
         x="40.634769"
         y="155.60669"
         style="font-style:normal;font-variant:normal;font-weight:normal;font-stretch:normal;font-size:99.3648px;font-family:'Nimbus Roman No9 L';-inkscape-font-specification:'Nimbus Roman No9 L, Normal';font-variant-ligatures:normal;font-variant-caps:normal;font-variant-numeric:normal;font-variant-east-asian:normal;fill:#000080;stroke-width:2.48412"
         sodipodi:role="line">S</tspan></text>
    <g
       id="g950"
       style="fill:#000000"
       transform="rotate(-14.160614,94.436647,134.62969)">
      <path
         sodipodi:type="star"
         style="fill:#000000;stroke-width:1"
         id="path887"
         sodipodi:sides="4"
         sodipodi:cx="65.148087"
         sodipodi:cy="202.90373"
         sodipodi:r1="4.4261403"
         sodipodi:r2="3.1297538"
         sodipodi:arg1="1.8259774"
         sodipodi:arg2="2.6113756"
         inkscape:flatsided="true"
         inkscape:rounded="0"
         inkscape:randomized="0"
         inkscape:transform-center-y="-7.2894827e-06"
         transform="matrix(0.67867552,-1.6531289,0.83006888,-0.04851499,-107.40776,252.87899)"
         inkscape:transform-center-x="7.4351213e-06"
         d="m 64.030837,207.18654 -3.165562,-5.40006 5.400061,-3.16556 3.165562,5.40006 z" />
      <rect
         style="fill:#000000;stroke-width:0.670278"
         id="rect842"
         width="45.299805"
         height="5.8102655"
         x="-32.047955"
         y="157.07053"
         transform="matrix(0.49149277,-0.87088165,0.79134161,0.61137424,0,0)" />
      <rect
         style="fill:#000000;stroke-width:0.670278"
         id="rect842-2"
         width="11.968406"
         height="3.9945469"
         x="-34.531532"
         y="157.91788"
         transform="matrix(0.49149277,-0.87088165,0.79134161,0.61137424,0,0)" />
      <path
         style="fill:#000000;stroke-width:0.168392"
         d="m 108.21034,134.96231 c 0.0784,-0.73351 0.27185,-2.48685 0.42989,-3.89632 0.15803,-1.40947 0.27859,-2.57025 0.26791,-2.57951 -0.0107,-0.009 -1.35199,1.07127 -2.98066,2.4012 -1.62867,1.32992 -2.96265,2.40986 -2.9644,2.39986 -0.002,-0.01 1.11722,-1.45818 2.48659,-3.21816 2.29622,-2.95118 2.50044,-3.20285 2.6268,-3.2372 l 0.13702,-0.0372 1.42795,1.10229 1.42795,1.10229 -1.44924,3.51487 c -0.79709,1.93319 -1.47246,3.57491 -1.50083,3.64828 -0.0284,0.0734 0.0126,-0.46674 0.091,-1.20025 z"
         id="path889" />
      <path
         style="fill:#000000;stroke-width:0.168392"
         d="m 108.16859,135.71256 c 0.0134,-0.19451 0.0485,-0.57023 0.078,-0.83492 0.0579,-0.52071 0.42548,-3.88907 0.59164,-5.42196 0.0564,-0.52022 0.0899,-0.95567 0.0743,-0.96765 -0.036,-0.0278 -0.13872,0.0538 -3.17853,2.52418 -1.39713,1.13543 -2.54215,2.05344 -2.5445,2.04002 -0.01,-0.0568 4.49736,-5.82404 4.74858,-6.07599 0.0651,-0.0654 0.14785,-0.12238 0.18379,-0.12675 0.0409,-0.005 0.59898,0.39685 1.49112,1.07357 l 1.42579,1.08152 -0.0506,0.13417 c -0.0278,0.0738 -0.65679,1.60193 -1.3977,3.39588 -0.7409,1.79395 -1.36942,3.32244 -1.3967,3.39666 -0.0364,0.0989 -0.0431,0.0405 -0.0252,-0.21872 z"
         id="path891" />
      <path
         style="fill:#000000;stroke-width:0.6668"
         id="path895"
         d="m 108.15469,126.47833 c -0.0161,0.0487 -0.0294,0.0985 -0.0437,0.14792 -0.01,0.0326 -0.0213,0.0644 -0.0311,0.097 -0.0128,0.0396 -0.0256,0.0792 -0.0374,0.11927 -0.0106,0.0403 -0.0282,0.0767 -0.0466,0.11259 -0.0164,0.0316 -0.0337,0.0624 -0.0531,0.0915 -0.0158,0.0241 -0.0317,0.0482 -0.0498,0.0701 -0.0134,0.0158 -0.0265,0.032 -0.0407,0.0469 -0.009,0.009 -0.006,0.007 -0.0109,0.0101 0.002,0.0387 -8e-4,0.078 0.005,0.11614 0.002,0.009 0.005,-0.0173 0.009,-0.0253 0.006,-0.0145 0.013,-0.0284 0.0201,-0.0422 0.0305,-0.0618 0.0626,-0.12267 0.0939,-0.18392 0.0624,-0.1223 0.12362,-0.24535 0.18476,-0.36849 0.0228,-0.043 0.0117,-0.0234 0.0326,-0.0591 0,0 -0.005,-0.12351 -0.005,-0.12351 v 0 c -0.0217,0.0377 -0.0104,0.017 -0.0331,0.0625 -0.0599,0.12492 -0.12094,0.24912 -0.18446,0.37161 -0.0311,0.0603 -0.0626,0.12008 -0.0942,0.17999 -0.007,0.0131 -0.014,0.0262 -0.0208,0.0395 -0.004,0.008 -0.011,0.0143 -0.0116,0.0232 -0.003,0.0455 6e-4,0.0912 9.4e-4,0.13684 0.0198,-0.007 0.0401,-0.0425 0.0567,-0.0581 0.0194,-0.0213 0.035,-0.0461 0.0511,-0.0707 0.0202,-0.0292 0.0378,-0.0604 0.0539,-0.0929 0.0188,-0.036 0.0383,-0.0717 0.049,-0.11232 0.0119,-0.0397 0.0238,-0.0794 0.0373,-0.11843 0.0105,-0.0327 0.0204,-0.0655 0.0313,-0.0981 0.0138,-0.0489 0.0272,-0.0981 0.0428,-0.1463 0,0 -0.007,-0.12589 -0.007,-0.12589 z" />
      <path
         style="fill:#000000;stroke-width:0.6668"
         id="path897"
         d="m 108.37935,126.50027 c -0.0524,0.0504 -0.10778,0.0962 -0.15918,0.14811 -0.0428,0.043 -0.0819,0.0906 -0.12034,0.13888 -0.0415,0.052 -0.0868,0.0997 -0.13384,0.1446 -0.0354,0.031 -0.0457,0.022 -0.0139,0.12329 0.004,0.0129 0.0125,-0.0234 0.019,-0.0349 0.009,-0.0155 0.0179,-0.0307 0.0267,-0.0461 0.0444,-0.0708 0.084,-0.14618 0.13131,-0.21447 -0.004,-0.0381 0.006,-0.0822 -0.0119,-0.11446 -0.008,-0.0153 -0.0177,0.0301 -0.0268,0.0449 -0.0132,0.0224 -0.0267,0.0447 -0.0395,0.0674 -0.0374,0.0637 -0.0739,0.12825 -0.1113,0.19197 -0.0286,0.0428 -0.0413,0.0524 -0.005,0.13779 0.006,0.0152 0.0143,-0.0294 0.0218,-0.0438 0.0342,-0.0672 0.0695,-0.13367 0.10523,-0.19981 0.009,-0.016 0.0288,-0.0521 0.0407,-0.0709 7.8e-4,-10e-4 0.003,-0.002 0.003,-0.003 -0.002,-0.0375 -0.002,-0.0758 -0.01,-0.11221 -0.002,-0.009 -0.006,0.0182 -0.009,0.0269 -0.003,0.01 -0.006,0.0191 -0.01,0.0282 -0.0179,0.0566 -0.0266,0.076 -0.0134,0.16264 0.002,0.0101 0.0178,-5e-5 0.0255,-0.004 0.0122,-0.007 0.0224,-0.0178 0.0329,-0.0279 0.022,-0.021 0.0592,-0.0631 0.0795,-0.0857 0.005,-0.006 0.0477,-0.0548 0.0585,-0.0641 0.003,-0.003 0.01,-0.009 0.0102,-0.004 -1.8e-4,0.007 -0.009,0.0238 -0.0102,0.0171 -0.005,-0.0264 0.009,-0.0574 -0.002,-0.0811 -0.007,-0.0155 -0.008,0.034 -0.0125,0.0509 -0.0198,0.0708 -0.0331,0.12166 -0.0139,0.20338 0.002,0.01 0.0143,-0.0114 0.0202,-0.0186 0.009,-0.0105 0.0349,-0.0567 0.04,-0.0657 0.0246,-0.0437 0.049,-0.0875 0.0738,-0.13108 0.005,-0.009 0.0103,-0.019 0.016,-0.028 0.002,-0.003 0.007,-0.005 0.007,-0.009 -6.9e-4,-0.0355 -0.006,-0.0707 -0.009,-0.1061 -0.0134,0.061 -0.0249,0.12257 -0.0371,0.18391 -0.004,0.0211 -0.0149,0.0806 -0.0243,0.10388 -0.003,0.007 -0.008,0.0123 -0.0127,0.0185 -0.004,-0.002 -0.008,-0.003 -0.0115,-0.006 -0.006,-0.006 -0.0111,-0.0144 -0.0161,-0.0221 -0.0191,-0.0294 -0.036,-0.0618 -0.0445,-0.0975 -5e-5,-0.003 10e-4,-0.005 3.5e-4,-0.007 -0.007,-0.0138 -0.0483,-0.006 -0.0586,-0.004 -0.0109,10e-4 -0.0271,0.01 -0.0365,-0.002 -0.0115,-0.0146 -0.0111,-0.0417 -0.0126,-0.0597 1.4e-4,-0.0327 9.4e-4,-0.14134 -0.005,0.0808 2e-5,0.007 0.001,-0.0127 0.003,-0.0188 0.003,-0.0152 0.007,-0.03 0.009,-0.0451 0.001,-0.0437 0.005,-0.0875 0.003,-0.13116 -5e-5,-0.004 -0.007,-0.002 -0.01,-0.002 -0.0191,7.2e-4 -0.0343,0.023 -0.0464,0.0374 -0.0286,0.0335 -0.0531,0.0714 -0.077,0.10944 -0.0234,0.0363 -0.0411,0.0768 -0.0586,0.11726 -0.021,0.049 -0.02,0.0289 0.003,0.13781 0.002,0.007 0.008,-0.0121 0.0111,-0.0183 0.014,-0.0236 0.0281,-0.0471 0.0421,-0.0707 0.0174,-0.0281 0.0291,-0.0489 0.0462,-0.0767 0.0223,-0.0356 0.0634,-0.0779 0.002,-0.13122 -0.0159,-0.0137 -0.0215,0.0388 -0.0322,0.0582 -0.0451,0.0805 -0.0912,0.16023 -0.13751,0.23974 -0.0104,0.0177 -0.0206,0.0354 -0.0308,0.0532 -0.003,0.005 -0.01,0.01 -0.009,0.0159 0.003,0.0346 0.0139,0.0677 0.0209,0.10151 0.0966,-0.16191 0.19107,-0.32547 0.28933,-0.48597 0.0276,-0.0371 0.0438,-0.0502 0.002,-0.1276 -0.008,-0.0156 -0.0141,0.0329 -0.0217,0.049 -0.0283,0.0632 -0.0579,0.12569 -0.087,0.18846 -0.0174,0.0473 -0.0339,0.0798 0.005,0.14369 0.009,0.0153 0.0216,-0.0278 0.0316,-0.0423 0.0387,-0.0554 0.0742,-0.11408 0.11086,-0.17129 0.0179,-0.0291 0.0788,-0.0988 10e-4,-0.13338 -0.0212,-0.009 -0.0255,0.0438 -0.0385,0.0655 -0.0144,0.0253 -0.0693,0.12153 -0.0845,0.14846 -0.0109,0.0191 -0.0217,0.0382 -0.0326,0.0572 -0.006,0.0106 -0.012,0.0213 -0.0185,0.0315 -4e-4,6.4e-4 -0.002,1.7e-4 -0.002,6.5e-4 0.006,0.0342 0.002,0.0739 0.019,0.10271 0.007,0.0119 0.0136,-0.0244 0.0204,-0.0365 0.007,-0.0123 0.014,-0.0245 0.021,-0.0368 0.0304,-0.0512 0.0468,-0.062 0.008,-0.14887 -0.005,-0.0124 -0.013,0.0233 -0.0195,0.035 -0.0276,0.0496 -0.0187,0.0335 -0.0452,0.0828 -0.0267,0.0565 -0.0443,0.0838 -0.0201,0.17216 0.004,0.0154 0.0278,-0.003 0.0408,-0.008 0.0212,-0.009 0.0407,-0.0219 0.0611,-0.0329 0,0 0.001,-0.11736 0.001,-0.11736 v 0 c -0.0196,0.009 -0.039,0.0193 -0.0589,0.0278 -0.008,0.003 -0.0211,-0.002 -0.0238,0.008 -0.01,0.0337 -0.0123,0.0708 -0.01,0.10643 7.9e-4,0.0127 0.01,-0.0228 0.0148,-0.0341 0.0232,-0.0438 0.0198,-0.0389 0.0447,-0.0819 0.006,-0.0107 0.0174,-0.019 0.0188,-0.032 0.006,-0.0462 0.005,-0.0934 0.005,-0.14017 10e-6,-0.0164 -0.0265,0.11619 -0.0216,0.0421 -0.007,0.0122 -0.0139,0.0244 -0.021,0.0366 -0.007,0.0116 -0.0183,0.0207 -0.0202,0.0345 -0.008,0.0487 -0.005,0.0989 -0.008,0.14831 -2e-4,0.002 -7.3e-4,-0.004 8e-5,-0.005 0.008,-0.0189 0.046,-0.0868 0.0507,-0.0951 0.0293,-0.0521 0.0536,-0.096 0.0845,-0.14704 0.0123,-0.0205 0.0321,-0.0364 0.0379,-0.0605 0.0123,-0.05 0.0107,-0.10332 0.0152,-0.1551 3.3e-4,-0.003 -10e-4,0.006 -0.002,0.009 -0.007,0.0126 -0.0146,0.0252 -0.0219,0.0378 -0.0355,0.0576 -0.0714,0.11476 -0.11004,0.16958 -0.009,0.0128 -0.0242,0.0212 -0.0276,0.0371 -0.009,0.0425 -0.008,0.0874 -0.008,0.13121 1e-5,0.0105 0.005,-0.0198 0.008,-0.0299 0.0279,-0.0631 0.0564,-0.12587 0.0868,-0.18739 0.008,-0.0147 0.0206,-0.0273 0.0228,-0.0442 0.006,-0.0461 0.005,-0.0936 1.5e-4,-0.13981 -0.001,-0.009 -0.009,0.0154 -0.0136,0.0231 -0.0924,0.16342 -0.18624,0.32607 -0.28849,0.48133 -0.004,0.0489 -0.0103,0.0977 -0.0117,0.14686 -1.1e-4,0.008 0.005,-0.015 0.008,-0.022 0.009,-0.0194 0.02,-0.0381 0.0306,-0.0568 0.0445,-0.0798 0.0913,-0.15788 0.13773,-0.23619 0.0551,-0.0899 0.036,-0.0392 0.0422,-0.20183 1.6e-4,-0.003 -0.003,0.005 -0.004,0.007 -0.005,0.009 -0.0107,0.0183 -0.0161,0.0275 -0.0228,0.0378 -0.0227,0.0376 -0.0464,0.077 -0.0683,0.10925 0.0132,-0.0207 -0.0422,0.067 -0.003,0.005 -0.01,0.009 -0.01,0.0162 -0.002,0.0439 0.001,0.0881 0.002,0.13211 6e-5,0.006 -0.003,-0.0509 0.005,-0.0185 0.0169,-0.0404 0.0343,-0.0809 0.0569,-0.11754 0.0236,-0.0378 0.0472,-0.0758 0.0756,-0.1089 0.008,-0.01 0.0136,-0.0175 0.0221,-0.0259 0.0393,-0.0387 0.0103,0.0535 0.0186,-0.12883 -8.2e-4,0.0162 -0.005,0.0305 -0.008,0.0462 -0.001,0.006 -0.003,0.0126 -0.004,0.019 -0.003,0.0477 -0.005,0.0955 -0.007,0.14328 -4.5e-4,0.007 7.5e-4,0.015 10e-4,0.0225 0.004,0.0278 0.009,0.0634 0.0379,0.069 0.007,0.001 0.0212,-0.002 0.028,-0.004 0.008,-0.001 0.0348,-0.008 0.0416,4.2e-4 0.002,0.002 -0.006,0.008 0.002,0.01 0.008,0.0233 0.0185,0.045 0.0306,0.0661 0.008,0.0145 0.0264,0.0451 0.0403,0.0543 0.007,0.005 0.0156,0.004 0.0234,0.006 0.006,-0.007 0.0131,-0.0128 0.0172,-0.0212 0.009,-0.0216 0.0212,-0.088 0.025,-0.10708 0.0116,-0.0593 0.0219,-0.11914 0.0379,-0.17713 -0.001,-0.0481 0.001,-0.0965 -0.003,-0.14439 -6.7e-4,-0.005 -0.006,0.008 -0.008,0.0122 -0.0306,0.0529 -0.0571,0.10899 -0.0892,0.16067 -0.007,0.0121 -0.0143,0.0243 -0.0219,0.0361 -1.9e-4,3.2e-4 -0.024,0.0347 -0.0247,0.0432 -0.0305,0.30505 -0.007,0.11824 -7.2e-4,0.0915 0.004,-0.0161 0.009,-0.0321 0.0129,-0.0482 0.0225,-0.0854 0.0251,-0.0845 0.0288,-0.21259 7e-5,-0.008 -0.004,-0.0171 -0.0105,-0.0203 -0.005,-0.002 -0.01,0.004 -0.0141,0.007 -0.009,0.008 -0.0163,0.0184 -0.0244,0.0277 -0.0112,0.0134 -0.0228,0.0266 -0.0342,0.0398 -0.0287,0.0318 -0.0476,0.0542 -0.0782,0.0831 -0.009,0.009 -0.0193,0.0164 -0.029,0.0245 -0.003,0.002 -0.007,0.003 -0.007,0.006 -0.005,0.0364 -0.008,0.0732 -0.008,0.10994 -10e-6,0.009 0.005,-0.017 0.007,-0.026 0.0299,-0.0855 0.0247,-0.0491 0.0192,-0.19329 9e-5,-0.003 -0.004,0.004 -0.005,0.007 -0.0145,0.025 -0.0258,0.0523 -0.041,0.0767 -0.0299,0.0569 -0.0406,0.0771 -0.0715,0.13454 -0.0112,0.0206 -0.0225,0.0411 -0.034,0.0615 -0.007,0.0131 -0.0209,0.0232 -0.0227,0.0389 -0.005,0.0441 -0.005,0.0898 0.002,0.13368 0.002,0.0102 0.01,-0.0172 0.0144,-0.0258 0.0362,-0.0654 0.0724,-0.13091 0.11117,-0.19436 0.0129,-0.0215 0.0262,-0.0425 0.0396,-0.0636 0.008,-0.0136 0.0234,-0.0234 0.0262,-0.0398 0.008,-0.0448 0.003,-0.0913 0.004,-0.13696 -0.0426,0.0742 -0.0868,0.14727 -0.13147,0.21987 -0.009,0.0147 -0.018,0.0294 -0.0271,0.044 -0.007,0.0108 -0.0175,0.0193 -0.0203,0.032 -0.009,0.047 -0.0116,0.0953 -0.0126,0.14334 -10e-6,0.004 0.006,0.004 0.01,0.003 0.01,-0.002 0.0143,-0.0187 0.024,-0.0205 0.0467,-0.0459 0.092,-0.0941 0.13516,-0.1446 0.0387,-0.0482 0.0762,-0.098 0.11923,-0.14123 0.0505,-0.0518 0.10466,-0.0978 0.15895,-0.14385 0,0 -0.002,-0.12593 -0.002,-0.12593 z" />
      <path
         style="fill:#000000;stroke-width:0.6668"
         id="path899"
         d="m 111.03838,128.9059 c -0.0321,-0.0239 -0.0639,-0.0484 -0.0964,-0.0715 -0.0344,-0.024 -0.0687,-0.048 -0.1026,-0.0727 -0.0172,-0.0131 -0.0363,-0.0221 -0.0543,-0.0336 -0.0228,-0.0151 -0.0448,-0.0321 -0.0668,-0.0487 -0.0272,-0.0248 -0.0558,-0.0476 -0.0823,-0.0733 -0.0269,-0.0265 -0.0537,-0.0529 -0.0814,-0.0782 -0.0241,-0.022 -0.049,-0.0427 -0.0742,-0.0628 -0.0202,-0.0163 -0.0408,-0.0317 -0.0614,-0.0472 -0.0318,-0.0274 -0.0635,-0.0551 -0.0957,-0.0819 -0.03,-0.0248 -0.0606,-0.0485 -0.0912,-0.0723 -0.0245,-0.0187 -0.0486,-0.0378 -0.0718,-0.0587 -0.0267,-0.0247 -0.0546,-0.0476 -0.0827,-0.07 -0.0262,-0.0209 -0.0527,-0.0416 -0.0792,-0.0621 -0.0328,-0.0249 -0.0654,-0.05 -0.098,-0.0752 -0.0293,-0.0228 -0.0607,-0.0416 -0.091,-0.0627 -0.0391,-0.0277 -0.0774,-0.0572 -0.11562,-0.0868 -0.0342,-0.025 -0.0659,-0.0541 -0.0983,-0.0821 -0.0339,-0.0291 -0.0688,-0.0565 -0.10377,-0.0839 -0.0324,-0.0251 -0.0647,-0.0502 -0.0969,-0.0756 -0.0251,-0.0196 -0.0504,-0.0388 -0.0756,-0.0582 -0.0287,-0.0222 -0.0575,-0.0443 -0.0861,-0.0666 -0.0233,-0.0191 -0.0473,-0.0368 -0.0723,-0.0528 -0.0304,-0.0193 -0.0599,-0.0406 -0.0891,-0.0623 -0.0222,-0.0188 -0.0462,-0.0336 -0.0702,-0.049 -0.0248,-0.0157 -0.0486,-0.0335 -0.0724,-0.0512 -0.0247,-0.0179 -0.0486,-0.0368 -0.0714,-0.0578 -0.0263,-0.0231 -0.0521,-0.047 -0.0777,-0.0711 -0.0253,-0.0221 -0.0499,-0.0451 -0.0746,-0.0682 -0.0243,-0.0227 -0.0498,-0.0433 -0.0756,-0.0636 -0.033,-0.0253 -0.0678,-0.0472 -0.10154,-0.0709 -0.0371,-0.0264 -0.0735,-0.0541 -0.10966,-0.0821 -0.0288,-0.0224 -0.0576,-0.0446 -0.0864,-0.067 -0.023,-0.0187 -0.0465,-0.0364 -0.0712,-0.0521 -0.0214,-0.0131 -0.0422,-0.0274 -0.0627,-0.0423 -0.0112,-0.008 -0.0223,-0.0165 -0.0333,-0.025 0,0 -0.012,0.12489 -0.012,0.12489 v 0 c 0.0112,0.008 0.0223,0.017 0.0335,0.0254 0.0207,0.0149 0.0417,0.029 0.0633,0.042 0.0243,0.0156 0.0472,0.0338 0.0703,0.0517 0.0288,0.0222 0.0575,0.0445 0.0865,0.0664 0.0365,0.0275 0.073,0.0554 0.11004,0.082 0.0337,0.0237 0.0683,0.0457 0.1009,0.0716 0.0254,0.0203 0.0507,0.041 0.0747,0.0636 0.0246,0.0231 0.0494,0.0458 0.0746,0.068 0.0258,0.0241 0.0515,0.0481 0.0778,0.0714 0.0232,0.0209 0.0476,0.0399 0.0724,0.0583 0.024,0.0178 0.0484,0.0349 0.0732,0.0511 0.0237,0.0152 0.0471,0.0309 0.0696,0.0485 0.0295,0.0217 0.0592,0.043 0.0897,0.0627 0.0246,0.0162 0.0481,0.0343 0.0715,0.0526 0.0288,0.022 0.0574,0.0443 0.0862,0.0665 0.0252,0.0195 0.0502,0.0393 0.0755,0.0585 0.0324,0.0246 0.0648,0.0494 0.0969,0.0747 0.0348,0.0273 0.0695,0.0548 0.10331,0.0839 0.0325,0.0281 0.0644,0.0574 0.0989,0.0823 0.0385,0.0291 0.0771,0.0582 0.11603,0.0867 0.03,0.0215 0.061,0.0407 0.0905,0.063 0.0327,0.0251 0.0654,0.0503 0.0979,0.0759 0.0264,0.0205 0.0529,0.0408 0.0791,0.0616 0.0279,0.0226 0.0555,0.0456 0.082,0.0703 0.0234,0.0211 0.0477,0.0402 0.0726,0.0586 0.0305,0.0235 0.061,0.0473 0.0909,0.072 0.0324,0.0269 0.0641,0.0548 0.096,0.0825 0.0204,0.016 0.0408,0.0319 0.0612,0.0478 0.025,0.0198 0.0498,0.0398 0.0736,0.0615 0.0276,0.0255 0.0539,0.0528 0.0812,0.0788 0.0274,0.0251 0.0556,0.0491 0.0834,0.0735 0.0222,0.0172 0.0445,0.0343 0.0676,0.0497 0.0178,0.0112 0.0367,0.0201 0.0538,0.033 0.0342,0.0236 0.0688,0.0464 0.10273,0.0705 0.0325,0.0238 0.0641,0.0493 0.0958,0.0745 0,0 0.0121,-0.12578 0.0121,-0.12578 z" />
      <path
         sodipodi:type="star"
         style="fill:#000000;stroke-width:1"
         id="path921"
         sodipodi:sides="3"
         sodipodi:cx="136.36591"
         sodipodi:cy="84.788406"
         sodipodi:r1="3.390203"
         sodipodi:r2="1.6951015"
         sodipodi:arg1="-0.23700797"
         sodipodi:arg2="0.81018958"
         inkscape:flatsided="true"
         inkscape:rounded="0"
         inkscape:randomized="0"
         inkscape:transform-center-x="0.63091308"
         inkscape:transform-center-y="0.24027376"
         transform="rotate(-38.27164,135.52545,88.049148)"
         d="m 139.66134,83.992403 -4.25379,4.047931 -1.37872,-5.707851 z" />
    </g>
    <path
       style="fill:#000080;stroke-width:1"
       id="path956"
       d="m 101.29497,141.3496 c -0.22096,0.39458 -0.52092,0.74601 -0.81764,1.08707 -0.24881,0.25107 -0.46471,0.52907 -0.652471,0.82768 -0.149199,0.0791 -0.208497,0.24753 -0.334682,0.34904 -0.242007,0.19466 0.06056,-0.0884 -0.163677,0.12873 -0.157572,0.16286 -0.354745,0.28048 -0.5041,0.45196 -0.213177,0.16855 -0.407754,0.36034 -0.645255,0.49438 2.816595,-1.79957 1.907115,-1.0124 1.277199,-0.77428 -0.138406,0.0523 -0.283424,0.0902 -0.424005,0.13625 -0.333346,0.0925 -0.679529,0.1191 -1.023533,0.13707 -0.309528,0.0131 -0.619395,0.0126 -0.929134,0.0127 -0.2803,2e-5 -0.5606,-5.3e-4 -0.840896,0.001 -0.403268,0.008 -0.80522,0.007 -1.207503,-0.0231 -0.557154,-0.0268 -1.109631,-0.10272 -1.664126,-0.15849 -0.642168,-0.0434 -1.282541,-0.10981 -1.921965,-0.18254 -0.490379,-0.0421 -0.971585,-0.14787 -1.457764,-0.21972 -0.403146,-0.0521 -0.810292,-0.0532 -1.21565,-0.0789 -0.723778,-0.047 -1.44894,-0.0676 -2.17398,-0.0826 -0.476494,-0.0255 -0.94937,-0.006 -1.423295,0.0416 -0.533095,0.0822 -1.058838,0.21424 -1.58265,0.34274 -0.429911,0.1103 -0.861044,0.21572 -1.284827,0.34806 -0.393446,0.10786 -0.778333,0.24229 -1.170765,0.3536 -0.49166,0.14299 -0.973799,0.31425 -1.456513,0.48416 -0.432152,0.14623 -0.859967,0.30789 -1.297657,0.43717 -0.31351,0.0891 -0.622792,0.19292 -0.927171,0.30934 -0.29904,0.12038 -0.593336,0.25081 -0.895874,0.36218 -0.295392,0.13027 -0.583044,0.27435 -0.880658,0.40073 -0.417206,0.15567 -0.83557,0.31095 -1.257109,0.45507 -0.365078,0.0947 -0.713198,0.24026 -1.078582,0.33296 -0.466508,0.0836 -0.930196,0.18202 -1.39781,0.25915 -0.691854,0.0687 -1.378463,0.1774 -2.068721,0.25942 -0.80055,0.11719 -1.605571,0.18722 -2.411283,0.25537 -0.707983,0.0639 -1.417572,0.1068 -2.127814,0.13472 -0.470175,0.0154 -0.940652,0.0333 -1.409634,-0.01 -0.364802,-0.016 -0.704638,-0.14787 -1.051374,-0.24723 -0.261734,-0.0602 -0.497769,-0.18872 -0.748496,-0.2791 -0.251412,-0.0795 -0.493728,-0.18299 -0.73415,-0.29046 -0.271404,-0.11655 -0.527479,-0.26191 -0.781952,-0.41085 -0.313677,-0.17999 -0.645798,-0.32505 -0.975289,-0.47315 -0.430863,-0.2274 -0.813411,-0.54111 -1.192395,-0.84497 -0.441161,-0.31426 -0.855961,-0.66345 -1.312878,-0.95493 -0.268772,-0.16612 -0.567518,-0.29613 -0.804807,-0.50813 -0.215538,-0.2404 -0.451723,-0.46175 -0.668824,-0.70071 -0.20042,-0.24348 -0.307187,-0.53886 -0.376651,-0.84232 -0.03075,-0.28173 -0.07627,-0.55887 -0.125989,-0.8379 -0.0832,-0.22164 -0.144095,-0.44603 -0.173149,-0.68086 -0.01675,-0.16405 -0.0199,-0.32899 -0.0232,-0.49372 0,0 -1.768157,0.90641 -1.768157,0.90641 v 0 c 0.005,0.17167 0.01027,0.34363 0.03247,0.51414 0.03574,0.23595 0.100917,0.46196 0.179012,0.68721 0.05195,0.28181 0.08476,0.56508 0.134109,0.84709 0.08585,0.3324 0.207359,0.65744 0.42817,0.92579 0.218199,0.24319 0.457015,0.46762 0.669422,0.71572 0.23218,0.2394 0.552096,0.37204 0.83834,0.53611 0.456573,0.28186 0.874634,0.61736 1.312686,0.92649 0.385267,0.31826 0.77244,0.64789 1.203745,0.90117 0.325427,0.13826 0.646626,0.28695 0.958213,0.4544 0.257926,0.15718 0.519435,0.30687 0.794181,0.43273 0.246906,0.10574 0.488013,0.22407 0.743254,0.3094 0.262361,0.0715 0.494112,0.21612 0.758534,0.28339 0.359003,0.0892 0.701942,0.24505 1.074595,0.26957 0.476575,0.0533 0.952362,0.0471 1.43156,0.0285 0.718309,-0.0291 1.435192,-0.0848 2.15175,-0.14171 0.807143,-0.0669 1.615051,-0.12074 2.415466,-0.25201 0.687107,-0.0704 1.367917,-0.18466 2.056537,-0.24065 0.468609,-0.0643 0.929249,-0.16998 1.396469,-0.24195 0.376943,-0.0698 0.721659,-0.22032 1.090742,-0.31805 0.42918,-0.13108 0.841134,-0.3111 1.269936,-0.44361 0.295571,-0.12332 0.593471,-0.23942 0.87208,-0.39396 0.290364,-0.13835 0.607028,-0.2182 0.892797,-0.36912 0.304096,-0.11357 0.606324,-0.23034 0.917188,-0.32535 0.448557,-0.11301 0.878034,-0.29011 1.316139,-0.43578 0.482258,-0.16012 0.956286,-0.34442 1.444418,-0.48754 0.391626,-0.11274 0.778973,-0.23533 1.170271,-0.34849 0.427646,-0.12854 0.853842,-0.25938 1.289163,-0.36246 0.514409,-0.13967 1.037977,-0.24532 1.557801,-0.36078 0.473181,-0.0506 0.943565,-0.0961 1.420651,-0.0688 0.722434,0.008 1.445242,0.0212 2.165998,0.0747 0.398275,0.0323 0.795465,0.0565 1.1942,0.0797 0.494784,0.0578 0.981974,0.16642 1.478589,0.20915 0.637384,0.0739 1.275104,0.1488 1.915404,0.19195 0.555077,0.0494 1.106429,0.13249 1.66329,0.16152 0.402076,0.0381 0.802177,0.0584 1.206433,0.045 0.280279,5.3e-4 0.560555,-0.001 0.840833,-0.001 0.311655,-5.3e-4 0.623382,2.7e-4 0.934974,-0.007 0.351991,-0.0125 0.704292,-0.0354 1.051063,-0.10067 0.955225,-0.22554 1.720535,-0.72475 2.568133,-1.29278 0.22057,-0.16511 0.43453,-0.34156 0.63339,-0.53233 0.17281,-0.14481 0.34495,-0.29002 0.50926,-0.44455 0.17991,-0.15078 0.32462,-0.34308 0.47514,-0.52167 0.19979,-0.28221 0.41269,-0.55101 0.65142,-0.80201 0.29675,-0.35684 0.59291,-0.72203 0.80761,-1.13547 0,0 -1.80857,0.81891 -1.80857,0.81891 z" />
    <path
       style="fill:#000080;stroke-width:1"
       id="path958"
       d="m 102.94901,140.23549 c -0.0817,0.14936 -0.1466,0.30784 -0.23916,0.45093 -0.0722,0.11383 -0.14393,0.22969 -0.23542,0.3292 -0.0686,0.091 -0.15113,0.16912 -0.23598,0.24463 -0.10197,0.0755 -0.19787,0.1605 -0.28609,0.25158 -0.0657,0.0622 -0.14701,0.10427 -0.21079,0.16799 -0.0666,0.0969 -0.17308,0.15941 -0.2597,0.23776 -0.16156,0.14154 -0.32968,0.27595 -0.48549,0.42385 -0.13676,0.13735 -0.28265,0.2691 -0.38628,0.43425 -0.0798,0.14664 -0.17785,0.28244 -0.25749,0.42898 -0.075,0.12038 -0.17591,0.2258 -0.27794,0.32397 -0.125973,0.0806 -0.234539,0.18367 -0.357465,0.26835 -0.111331,0.058 -0.202779,0.14591 -0.302882,0.22018 -0.01111,0.0112 -0.02156,0.0231 -0.03331,0.0336 -0.02106,0.0188 -0.04306,0.0366 -0.06616,0.0529 -0.01151,0.008 -0.04838,0.0286 -0.03624,0.0215 0.886497,-0.51688 0.626234,-0.36522 -0.07258,0.0389 -0.21875,0.1371 -0.08689,0.0539 0.518705,-0.29916 0.01506,-0.009 -0.03052,0.0168 -0.0458,0.0252 -0.04991,0.0274 -0.100346,0.0522 -0.152091,0.0759 -0.1783,0.0744 -0.345321,0.1723 -0.518837,0.25673 -0.132535,0.0638 -0.272352,0.1056 -0.416891,0.13037 -0.153326,0.0191 -0.306827,0.0374 -0.459227,0.0631 -0.287567,0.0496 -0.243271,0.0692 -0.619826,0.44896 -0.01968,0.0199 0.11734,0.0335 0.265285,0.0353 0.289414,-0.0206 0.563126,-0.13116 0.831895,-0.23339 0.422571,-0.19223 0.831606,-0.42257 1.216324,-0.6816 0.174088,-0.11315 0.33954,-0.24105 0.49884,-0.37418 0.16538,-0.13941 0.33103,-0.28079 0.48298,-0.43498 0.12749,-0.12655 0.24621,-0.26022 0.36973,-0.39041 0.0476,-0.0515 0.1101,-0.1431 0.009,-0.18736 -0.054,-0.0235 -0.11482,0.0178 -0.15847,0.0364 -0.42553,0.23043 -0.85096,0.46906 -1.210434,0.79589 -0.138686,0.11957 -0.241117,0.27072 -0.359391,0.40857 -0.0885,0.1189 -0.175731,0.2344 -0.287642,0.33203 -0.102613,0.0888 -0.201409,0.18089 -0.310401,0.26189 -0.137475,0.0987 -0.266817,0.209 -0.407064,0.30387 -0.188053,0.14707 -0.552919,0.33606 0.438981,-0.24372 0.02304,-0.0135 -0.04634,0.0265 -0.06977,0.0393 -0.07673,0.0419 -0.09642,0.0508 -0.176255,0.0909 -0.180959,0.0806 -0.08142,0.0419 -0.30054,0.11103 0,0 -0.54184,0.41714 -0.54184,0.41714 v 0 c 0.218882,-0.0558 0.119642,-0.0222 0.29968,-0.0945 0.345612,-0.16804 0.691814,-0.34584 0.9998,-0.57654 0.135914,-0.10047 0.269105,-0.20465 0.404476,-0.30585 0.107244,-0.0853 0.20872,-0.17739 0.310714,-0.26888 0.105582,-0.10364 0.188006,-0.22599 0.282506,-0.33941 0.11374,-0.13853 0.22105,-0.28273 0.36044,-0.39772 0.086,-0.0735 0.17351,-0.14559 0.26508,-0.21219 0.19673,-0.14308 0.70808,-0.44251 -0.24061,0.11424 0.02,-0.0131 0.13082,-0.0645 0.12056,-0.10719 -0.001,-0.005 -0.005,0.008 -0.008,0.0122 -0.0301,0.0421 -0.0251,0.0339 -0.0647,0.0792 -0.12065,0.13042 -0.24067,0.2613 -0.36714,0.38619 -0.15584,0.14808 -0.315649,0.29266 -0.482686,0.42801 -0.162679,0.12973 -0.328435,0.25657 -0.503931,0.36863 -0.255452,0.16498 -0.09544,0.0593 0.406435,-0.22593 0.03224,-0.0183 -0.06358,0.0382 -0.09591,0.0564 -0.11021,0.062 -0.223287,0.11911 -0.337765,0.17274 -0.26299,0.10403 -0.530616,0.21361 -0.812503,0.25074 -0.03421,5.3e-4 -0.138224,0.003 -0.177663,-2.6e-4 -0.02127,-0.002 -0.04434,-0.0216 -0.0631,-0.0113 -1.176202,0.64186 -0.781343,0.41351 -0.524123,0.35583 0.151336,-0.0279 0.303709,-0.0483 0.456715,-0.064 0.149432,-0.0175 0.29413,-0.0542 0.431946,-0.11569 0.17422,-0.0797 0.338304,-0.17974 0.513852,-0.25633 0.314249,-0.12306 0.589058,-0.33279 0.884905,-0.48976 -0.189238,0.10872 -0.754748,0.4386 -0.567711,0.32614 0.294036,-0.17679 0.540197,-0.27008 0.771709,-0.47978 0.0961,-0.0779 0.19604,-0.15063 0.30057,-0.21682 0.11979,-0.0914 0.2409,-0.18218 0.35508,-0.28009 0.0978,-0.10594 0.20069,-0.20947 0.26728,-0.33909 0.0845,-0.14288 0.17503,-0.28229 0.26092,-0.42434 0.11305,-0.15353 0.25045,-0.28621 0.38785,-0.41777 0.16008,-0.14473 0.32663,-0.2822 0.48998,-0.42322 0.0921,-0.0765 0.18626,-0.15034 0.2657,-0.2402 0.0718,-0.0535 0.14364,-0.10768 0.20723,-0.17102 0.0932,-0.0859 0.18676,-0.17072 0.28637,-0.24915 0.0839,-0.0786 0.16176,-0.16306 0.23294,-0.25344 0.0826,-0.10786 0.15907,-0.22021 0.22771,-0.33754 0.0852,-0.1501 0.157,-0.30726 0.24085,-0.45813 0,0 -0.63942,0.28953 -0.63942,0.28953 z" />
  </g>
</svg>
