<svg width="400" height="400" viewBox="0 0 400 400" fill="none" xmlns="http://www.w3.org/2000/svg">
<rect width="400" height="400" rx="167" fill="#F75C03"/>
<path d="M310.5 179.588C327.7 208.388 328.167 248.088 324.5 263.088C317.656 291.088 287.663 325.698 267.663 334.198C247.663 342.698 198 353.588 147.5 321.088C113.292 299.073 95.5453 241.228 82.0001 199.088C73 171.088 73 142.408 73 123.088C73 96.1975 91.3297 73.755 101.163 67.0883C115.163 54.1976 171.5 53.0883 208.5 67.0883C257.907 85.7827 289 143.588 310.5 179.588Z" fill="white" stroke="black"/>
<path d="M150.249 225.124C152.375 223.453 154.425 222.618 156.399 222.618C158.221 222.618 159.967 223.15 161.638 224.213C163.46 225.276 165.282 226.642 167.104 228.312C168.926 229.831 170.369 230.97 171.432 231.729C174.924 234.462 179.707 236.588 185.781 238.106C191.854 239.625 198.308 240.384 205.141 240.384C212.885 240.384 219.794 238.941 225.867 236.056C232.093 233.02 235.206 228.996 235.206 223.985C235.206 219.43 233.535 215.861 230.195 213.28C226.854 210.547 222.83 208.573 218.123 207.358C213.416 206.143 207.191 205.005 199.447 203.942C188.969 202.727 180.618 201.208 174.392 199.386C168.319 197.564 163.46 194.603 159.816 190.504C156.171 186.252 154.349 180.33 154.349 172.738C154.349 164.538 158.221 158.465 165.965 154.517C173.709 150.417 182.592 148.367 192.614 148.367C201.724 148.367 209.468 150.341 215.846 154.289C222.375 158.085 225.715 163.551 225.867 170.688C226.171 174.788 225.564 178.052 224.045 180.482C222.527 182.76 220.705 183.898 218.579 183.898C217.364 183.898 216.301 183.443 215.39 182.532C214.631 181.621 214.251 180.406 214.251 178.888C214.251 176.458 215.086 173.801 216.757 170.916C215.997 167.272 213.492 164.538 209.24 162.716C205.141 160.894 200.206 159.983 194.436 159.983C185.933 159.983 179.176 161.577 174.165 164.766C169.154 167.803 166.648 171.447 166.648 175.699C166.648 180.254 168.471 183.747 172.115 186.176C175.759 188.605 180.163 190.352 185.325 191.415C190.64 192.326 198.156 193.237 207.874 194.148C215.922 195.211 222.451 196.501 227.462 198.02C232.624 199.538 236.952 202.499 240.444 206.903C243.937 211.154 245.683 217.304 245.683 225.352C245.683 233.703 241.811 240.308 234.067 245.167C226.323 249.874 217.06 252.228 206.28 252.228C192.462 252.228 180.087 249.874 169.154 245.167C158.373 240.46 152.072 233.779 150.249 225.124Z" fill="black"/>
<circle cx="253" cy="244" r="8" fill="black"/>
</svg>
